<svg width="25" height="25" viewBox="0 0 25 25" fill="none" xmlns="http://www.w3.org/2000/svg">
<path fill-rule="evenodd" clip-rule="evenodd" d="M19.9002 2.27117C19.9002 1.0249 20.9252 0 22.1714 0C23.4176 0 24.4426 1.0249 24.4426 2.27117C24.4426 3.51748 23.4176 4.54234 22.1714 4.54234C21.5632 4.54234 21.0086 4.29707 20.5992 3.90216L20.4069 4.01752L17.4911 5.76388L17.3146 5.86794C17.3582 6.04251 17.387 6.22356 17.387 6.41085C17.387 7.65716 16.3621 8.68202 15.1158 8.68202C13.9634 8.68202 13.0182 7.8021 12.8809 6.68456L12.8356 6.67778L9.59402 6.10772L9.4877 6.08963C9.16563 6.95424 8.33699 7.58036 7.36583 7.58036C7.08403 7.58036 6.81492 7.51981 6.56504 7.42428L4.05182 10.6274C4.40678 11.0287 4.62866 11.5499 4.62866 12.1227C4.62866 13.369 3.60371 14.3848 2.3575 14.3848C1.11128 14.3848 0.0863287 13.369 0.0863287 12.1227C0.0863287 10.8764 1.11128 9.85153 2.3575 9.85153C2.61279 9.85153 2.85609 9.90361 3.0859 9.98273L5.624 6.74564C5.29799 6.35211 5.09466 5.85534 5.09466 5.30919C5.09466 4.06292 6.11962 3.04481 7.36583 3.04481C8.48419 3.04481 9.41739 3.86728 9.59854 4.93594L9.79987 4.97214L13.0302 5.53314C13.3734 4.71667 14.1794 4.13968 15.1159 4.13968C15.759 4.13968 16.3411 4.41447 16.7559 4.84998L16.8961 4.76629L19.8143 3.01993L20.002 2.90682C19.9419 2.70397 19.9002 2.49247 19.9002 2.27117ZM23.2798 2.27117C23.2798 1.65085 22.7917 1.16273 22.1714 1.16273C21.5511 1.16273 21.0607 1.65085 21.0607 2.27117C21.0607 2.89153 21.5511 3.38187 22.1714 3.38187C22.7917 3.38187 23.2798 2.89153 23.2798 2.27117ZM8.47427 5.30919C8.47427 4.68888 7.98612 4.19849 7.36583 4.19849C6.74553 4.19849 6.25513 4.68888 6.25513 5.30919C6.25513 5.92955 6.74553 6.41763 7.36583 6.41763C7.98612 6.41763 8.47427 5.92955 8.47427 5.30919ZM16.2266 6.41085C16.2266 5.79053 15.7361 5.30015 15.1159 5.30015C14.4956 5.30015 14.0074 5.79053 14.0074 6.41085C14.0074 7.03121 14.4956 7.51929 15.1159 7.51929C15.7361 7.51929 16.2266 7.03121 16.2266 6.41085ZM3.4682 12.1227C3.4682 11.5024 2.97779 11.012 2.3575 11.012C1.7372 11.012 1.24906 11.5024 1.24906 12.1227C1.24906 12.743 1.7372 13.2334 2.3575 13.2334C2.97779 13.2334 3.4682 12.743 3.4682 12.1227ZM19.4602 9.92008V10.5051V24.3913H24.4069V9.92008H19.4602ZM20.6216 11.0816H23.2455V23.2384H20.6216V11.0816ZM12.9732 12.5528V11.9678H17.9199V24.3914H12.9732V12.5528ZM16.7585 13.1293H14.1346V23.2385H16.7585V13.1293ZM6.54653 14.5318V15.1083V24.3915H11.4846V14.5318H6.54653ZM7.69933 15.6933H10.3232V23.2387H7.69933V15.6933ZM0 16.5798V17.1562V24.3918H4.94671V16.5798H0ZM1.1614 17.7412H3.78531V23.2389H1.1614V17.7412Z" fill="white"/>
</svg>
