<svg width="99" height="84" viewBox="0 0 99 84" fill="none" xmlns="http://www.w3.org/2000/svg">
<path fill-rule="evenodd" clip-rule="evenodd" d="M78.4297 0.079811C75.5495 0.309923 72.78 1.57554 69.789 2.95622C68.3489 3.64655 66.798 4.33691 65.2471 4.91219C67.3519 5.94769 69.2351 7.21333 71.1183 8.594C79.8698 9.85962 84.5225 8.13376 85.8518 5.94769C86.6273 4.68207 86.1841 3.41647 85.8518 2.84119C84.8548 1.34546 82.4177 -0.380414 78.4297 0.079811ZM11.5197 2.84119C11.1874 3.41647 10.7443 4.68207 11.5197 5.94769C12.8491 8.0187 17.5018 9.85962 26.364 8.594C28.1365 7.21333 30.1305 5.94769 32.2353 4.91219C30.887 4.44542 29.6846 3.9029 28.4506 3.34611C28.1637 3.21666 27.8751 3.08644 27.5826 2.95622C27.4299 2.89164 27.2776 2.82705 27.1256 2.76259C24.2979 1.56383 21.57 0.407367 18.9419 0.079811C14.9539 -0.380414 12.406 1.2304 11.5197 2.84119ZM73.9986 83.4956C86.9596 82.345 97.3727 72.3352 98.2589 60.3693C99.0344 50.2444 93.0524 40.5796 83.1931 36.2075C78.0974 34.3666 73.8878 33.4461 70.1213 32.6407C61.1483 30.6848 55.2771 29.3041 52.9507 18.2587L57.2711 17.3382C58.9217 25.4528 62.2119 26.1881 70.8335 28.1146L71.0076 28.1536C73.6662 28.7288 76.6572 29.4192 80.2021 30.4547C77.9866 20.3297 69.1243 9.97466 57.0495 6.63803H56.9387H56.828V6.52297C54.2801 5.71757 51.5106 5.37241 48.6304 5.37241C33.7861 5.37241 19.7173 16.878 16.8371 30.6848C19.863 29.7245 22.6339 29.0954 25.0528 28.5462C25.8219 28.3716 26.5554 28.205 27.2502 28.0385L27.4244 27.9996C36.0459 26.073 39.3361 25.3378 40.9867 17.2232L45.307 18.1437C42.9838 29.2893 37.1251 30.5663 28.1722 32.5179L28.1365 32.5257C24.37 33.3311 20.1604 34.2515 14.9539 36.0924C4.98385 40.8097 -0.887375 50.4745 0.109628 60.8295C1.21741 72.5653 11.6305 82.345 24.2592 83.4956C29.2442 83.9558 34.1185 83.1504 38.5496 81.1945C45.3071 78.203 52.9507 78.203 59.7082 81.1945C64.1393 83.1504 69.1243 83.9558 73.9986 83.4956ZM28.471 19.1782C28.471 16.9921 30.2435 15.1512 32.3482 15.1512C34.5638 15.1512 36.2255 16.9921 36.2255 19.1782C36.2255 21.3642 34.453 23.2051 32.3482 23.2051C30.2435 23.2051 28.471 21.3642 28.471 19.1782ZM79.2026 43.8031C77.984 42.7676 76.3224 42.0773 74.5499 41.617C69.7865 40.5815 66.7954 41.2719 65.6877 43.8031C65.1338 44.9537 65.1338 46.4494 65.6877 47.715C66.2416 49.0957 67.3493 50.2463 68.7895 50.9366L70.5619 46.6795C69.8972 46.4494 71.4481 45.5289 73.6637 46.1042C75.3253 46.4494 76.1008 47.8301 75.4361 47.8301V52.4323C79.2026 52.4323 80.975 50.3613 81.3074 48.5204C81.5289 46.9096 80.8643 45.1838 79.2026 43.8031ZM23.9324 41.7293C22.16 42.1895 20.4983 42.8799 19.2797 43.9154C17.6181 45.2961 16.9534 47.0219 17.2857 48.6327C17.6181 50.4736 19.3905 52.5446 23.157 52.5446V47.9424C22.4923 47.9424 23.2677 46.5617 24.9294 46.2165C27.145 45.7563 28.6959 46.5617 28.0312 46.7918L29.8036 51.0489C31.2437 50.3586 32.3515 49.208 32.9054 47.8273C33.3485 46.5617 33.3485 45.0659 32.9054 43.9154C31.6869 41.3841 28.6959 40.5788 23.9324 41.7293ZM66.029 23.2051C68.1337 23.2051 69.9062 21.3642 69.9062 19.1782C69.9062 16.9921 68.1337 15.1512 66.029 15.1512C63.9242 15.1512 62.1517 16.9921 62.1517 19.1782C62.1517 21.4793 63.9242 23.2051 66.029 23.2051Z" fill="#764CD6"/>
</svg>
