<svg width="25" height="25" viewBox="0 0 25 25" fill="none" xmlns="http://www.w3.org/2000/svg">
<path d="M22.1291 1.80646H19.871V0.451614C19.871 0.331839 19.8235 0.216969 19.7388 0.132275C19.6541 0.0475808 19.5392 0 19.4194 0H4.96776C4.84798 0 4.73311 0.0475808 4.64842 0.132275C4.56372 0.216969 4.51614 0.331839 4.51614 0.451614V1.80646H2.25807C1.65919 1.80646 1.08484 2.04436 0.661374 2.46783C0.237903 2.8913 0 3.46565 0 4.06453V9.4839C0 10.0828 0.237903 10.6571 0.661374 11.0806C1.08484 11.5041 1.65919 11.742 2.25807 11.742H4.53872C4.6558 13.7265 5.53812 15.5883 7.00002 16.9355C7.90447 17.7254 8.63309 18.6962 9.13874 19.7853C9.6444 20.8744 9.91584 22.0575 9.93552 23.2581V23.4885H5.87099V24.3917H18.5162V23.4885H14.4517V23.2581C14.4713 22.0575 14.7428 20.8744 15.2484 19.7853C15.7541 18.6962 16.4827 17.7254 17.3872 16.9355C18.8574 15.5921 19.7481 13.7298 19.871 11.742H22.1291C22.728 11.742 23.3023 11.5041 23.7258 11.0806C24.1493 10.6571 24.3872 10.0828 24.3872 9.4839V4.06453C24.3872 3.46565 24.1493 2.8913 23.7258 2.46783C23.3023 2.04436 22.728 1.80646 22.1291 1.80646ZM0.903229 9.4839V4.06453C0.903229 3.7052 1.04597 3.36059 1.30005 3.10651C1.55414 2.85243 1.89875 2.70969 2.25807 2.70969H4.51614V10.8387H2.25807C1.89875 10.8387 1.55414 10.696 1.30005 10.4419C1.04597 10.1878 0.903229 9.84323 0.903229 9.4839ZM16.7775 16.2581C15.7792 17.1338 14.9759 18.2094 14.4196 19.4152C13.8634 20.6211 13.5666 21.9303 13.5484 23.2581V23.4885H10.8387V23.2581C10.8181 21.9334 10.5201 20.6276 9.9639 19.4251C9.40773 18.2225 8.60577 17.1498 7.6097 16.2762C6.91952 15.6419 6.36849 14.8713 5.99147 14.0131C5.61445 13.1549 5.41964 12.2277 5.41937 11.2904V0.903229H18.9678V11.2904C18.9669 12.227 18.7718 13.1532 18.3948 14.0106C18.0178 14.868 17.4671 15.6379 16.7775 16.2717V16.2581ZM23.4839 9.4839C23.4839 9.84323 23.3412 10.1878 23.0871 10.4419C22.833 10.696 22.4884 10.8387 22.1291 10.8387H19.871V2.70969H22.1291C22.4884 2.70969 22.833 2.85243 23.0871 3.10651C23.3412 3.36059 23.4839 3.7052 23.4839 4.06453V9.4839ZM16.353 6.63873H13.5033L12.6226 3.92904C12.5929 3.83869 12.5355 3.76002 12.4584 3.70425C12.3814 3.64847 12.2887 3.61845 12.1936 3.61845C12.0985 3.61845 12.0058 3.64847 11.9288 3.70425C11.8517 3.76002 11.7943 3.83869 11.7646 3.92904L10.8839 6.63873H8.03422C7.93982 6.63967 7.84808 6.67017 7.77191 6.72594C7.69574 6.78171 7.63896 6.85995 7.60956 6.94966C7.58015 7.03937 7.5796 7.13604 7.60798 7.22608C7.63636 7.31612 7.69224 7.395 7.76777 7.45164L10.071 9.12713L9.19035 11.8368C9.16099 11.9279 9.16135 12.0261 9.19138 12.117C9.22142 12.2079 9.27957 12.2869 9.35745 12.3426C9.43437 12.3981 9.5268 12.428 9.62164 12.428C9.71649 12.428 9.80892 12.3981 9.88584 12.3426L12.1936 10.6716L14.5013 12.3471C14.5783 12.4026 14.6707 12.4325 14.7655 12.4325C14.8604 12.4325 14.9528 12.4026 15.0297 12.3471C15.1076 12.2914 15.1658 12.2124 15.1958 12.1215C15.2258 12.0306 15.2262 11.9325 15.1968 11.8413L14.3162 9.13164L16.6194 7.45164C16.6949 7.395 16.7508 7.31612 16.7792 7.22608C16.8076 7.13604 16.807 7.03937 16.7776 6.94966C16.7482 6.85995 16.6914 6.78171 16.6153 6.72594C16.5391 6.67017 16.4474 6.63967 16.353 6.63873ZM13.5168 8.58971C13.4397 8.64602 13.3825 8.7253 13.3533 8.81617C13.3241 8.90705 13.3244 9.00484 13.3542 9.09551L13.9052 10.7981L12.46 9.74584C12.3827 9.68932 12.2894 9.65886 12.1936 9.65886C12.0978 9.65886 12.0045 9.68932 11.9271 9.74584L10.482 10.7981L11.0329 9.09551C11.0628 9.00484 11.0631 8.90705 11.0339 8.81617C11.0047 8.7253 10.9474 8.64602 10.8704 8.58971L9.42068 7.54196H11.2271C11.3267 7.54652 11.4251 7.51798 11.5068 7.4608C11.5885 7.40361 11.6489 7.32099 11.6787 7.22583L12.1936 5.52776L12.7446 7.22583C12.7744 7.32099 12.8348 7.40361 12.9165 7.4608C12.9982 7.51798 13.0966 7.54652 13.1962 7.54196H15.0026L13.5168 8.58971Z" fill="white"/>
</svg>
